<?xml version="1.0" standalone="no"?>
<!DOCTYPE svg PUBLIC "-//W3C//DTD SVG 20010904//EN"
 "http://www.w3.org/TR/2001/REC-SVG-20010904/DTD/svg10.dtd">
<svg version="1.0" xmlns="http://www.w3.org/2000/svg"
 width="700.000000pt" height="700.000000pt" viewBox="0 0 700.000000 700.000000"
 preserveAspectRatio="xMidYMid meet">
<metadata>
Created by potrace 1.11, written by Peter Selinger 2001-2013
</metadata>
<g transform="translate(0.000000,700.000000) scale(0.100000,-0.100000)"
fill="#000000" stroke="none">
<path d="M1330 5104 c-318 -67 -521 -393 -440 -708 47 -184 180 -336 351 -400
84 -32 128 -39 224 -38 156 2 285 59 400 175 152 155 202 352 144 572 -30 111
-132 247 -242 320 -118 78 -292 110 -437 79z"/>
<path d="M4540 5033 c-11 -3 -866 -1317 -1015 -1560 -5 -9 -29 -45 -52 -81
-24 -36 -43 -69 -43 -74 0 -21 -27 15 -232 303 -117 165 -241 339 -275 387
-188 264 -179 254 -211 233 -11 -7 -323 -484 -472 -721 -22 -36 -108 -168
-190 -295 -82 -126 -183 -284 -225 -350 -42 -66 -123 -192 -180 -280 -57 -88
-172 -267 -255 -398 l-152 -237 -208 0 -208 0 2 168 1 167 180 1 c99 0 190 4
203 8 36 12 27 41 -46 144 -38 53 -86 122 -107 152 -22 30 -58 83 -82 116
l-43 62 127 -2 c146 -2 183 6 183 37 0 22 -396 591 -427 614 -25 19 -44 3
-134 -119 -46 -62 -90 -120 -96 -128 -7 -8 -68 -91 -137 -184 -120 -164 -134
-193 -103 -213 6 -3 71 -6 144 -6 104 0 133 -2 129 -12 -2 -7 -70 -101 -151
-209 -80 -108 -148 -205 -150 -215 -7 -39 17 -44 223 -46 108 -1 199 -3 202
-3 3 -1 5 -75 5 -165 l-1 -162 -363 -5 c-332 -5 -365 -7 -375 -22 -8 -13 -8
-23 0 -35 11 -17 189 -18 3492 -20 3078 -2 3482 -1 3493 13 9 11 9 21 1 39
l-12 25 -185 0 -186 0 -179 273 c-98 149 -184 277 -189 284 -6 7 -11 14 -11
16 0 2 -82 127 -181 278 -100 150 -220 332 -267 404 -47 71 -187 283 -310 470
-124 187 -276 417 -337 510 -372 566 -549 831 -559 837 -12 8 -13 8 -36 1z
m886 -1423 c89 -135 243 -369 343 -520 99 -151 185 -282 191 -290 6 -8 61 -91
123 -185 61 -93 182 -277 269 -408 87 -131 158 -240 158 -242 0 -3 -304 -5
-675 -5 l-675 0 -1 35 c0 19 0 91 0 160 0 69 0 137 0 153 1 25 7 29 75 50 210
66 316 305 222 506 -128 278 -520 288 -665 17 -17 -32 -34 -81 -37 -108 -3
-26 -7 -57 -8 -67 -3 -17 3 -49 18 -114 7 -33 49 -101 83 -137 56 -59 121 -95
196 -109 l37 -7 0 -189 0 -190 -470 0 c-441 0 -470 1 -471 18 0 21 0 270 0
298 1 20 5 21 192 21 253 1 254 1 157 138 -175 245 -238 335 -238 338 0 2 63
3 140 4 150 0 176 8 164 47 -5 16 -238 353 -316 458 -7 10 -33 47 -58 82 -44
63 -67 80 -89 67 -8 -5 -181 -235 -339 -449 -9 -13 -34 -47 -56 -75 -56 -75
-63 -94 -43 -114 13 -13 40 -16 151 -16 95 0 133 -3 129 -11 -3 -6 -73 -102
-155 -212 -81 -111 -148 -211 -148 -223 0 -30 27 -34 239 -35 l186 -1 0 -165
0 -165 -772 -3 -773 -2 0 189 0 189 33 7 c71 14 170 70 205 117 7 9 19 23 26
31 18 18 52 93 62 137 12 58 6 145 -17 204 -38 104 -112 179 -215 221 -83 34
-204 31 -286 -7 -287 -133 -293 -530 -10 -672 26 -13 64 -26 85 -30 l37 -7 0
-189 0 -190 -549 0 -550 0 256 397 c140 219 271 423 291 453 54 85 131 203
142 220 6 8 86 134 180 279 93 145 174 269 180 275 7 7 22 4 47 -8 43 -20 105
-42 148 -52 51 -11 241 -14 276 -3 19 5 48 12 64 14 17 3 65 23 108 44 l79 38
37 -51 c21 -28 64 -89 97 -134 32 -46 76 -107 96 -135 20 -29 37 -56 38 -60 0
-4 -20 -38 -44 -75 -110 -169 -265 -411 -275 -431 -25 -45 27 -82 61 -43 9 9
219 334 468 722 249 388 471 734 495 770 23 36 61 95 85 133 23 37 44 67 46
67 1 0 35 -13 76 -29 184 -74 399 -67 568 17 l55 27 180 -270 c99 -149 253
-381 341 -515z"/>
</g>
</svg>
