<?xml version="1.0" standalone="no"?>
<!DOCTYPE svg PUBLIC "-//W3C//DTD SVG 20010904//EN"
 "http://www.w3.org/TR/2001/REC-SVG-20010904/DTD/svg10.dtd">
<svg version="1.0" xmlns="http://www.w3.org/2000/svg"
 width="700.000000pt" height="700.000000pt" viewBox="0 0 700.000000 700.000000"
 preserveAspectRatio="xMidYMid meet">
<metadata>
Created by potrace 1.11, written by Peter Selinger 2001-2013
</metadata>
<g transform="translate(0.000000,700.000000) scale(0.100000,-0.100000)"
fill="#000000" stroke="none">
<path d="M2717 6903 c-3 -5 -25 -46 -50 -93 -24 -47 -75 -143 -113 -215 -142
-271 -216 -412 -246 -472 -23 -47 -36 -63 -52 -63 -18 0 -84 11 -196 34 -47 9
-295 56 -321 61 -15 3 -96 18 -180 35 -85 17 -170 33 -189 36 -19 3 -38 8 -42
11 -5 2 -8 -4 -9 -14 -5 -108 -15 -367 -25 -678 -7 -216 -10 -275 -15 -279 -2
-2 -51 -15 -109 -30 -594 -154 -820 -215 -820 -221 0 -2 36 -86 80 -187 45
-101 89 -201 98 -222 9 -21 60 -136 113 -255 l97 -216 -27 -25 c-27 -25 -53
-48 -266 -229 -66 -57 -131 -113 -145 -124 -14 -12 -72 -63 -130 -112 -58 -50
-114 -98 -124 -107 -11 -10 -23 -18 -28 -18 -22 0 -2 -39 35 -67 23 -18 53
-42 67 -55 14 -13 102 -88 195 -168 94 -79 175 -149 181 -155 6 -5 33 -28 59
-50 26 -22 59 -50 74 -63 14 -13 45 -39 67 -58 l42 -35 -89 -202 c-49 -111
-93 -211 -98 -222 -157 -353 -202 -458 -198 -462 5 -4 110 -34 187 -53 19 -5
71 -18 115 -30 44 -12 88 -24 98 -26 9 -2 25 -6 35 -9 20 -5 90 -24 112 -29 8
-3 69 -19 135 -36 66 -18 149 -40 185 -50 63 -17 65 -18 66 -51 1 -19 4 -124
8 -234 3 -110 9 -272 12 -360 3 -88 7 -196 8 -240 2 -79 10 -110 25 -101 4 3
19 7 34 10 15 2 62 12 104 20 43 9 89 18 103 20 25 5 511 98 628 121 34 6 64
9 66 6 2 -3 45 -87 96 -186 51 -99 96 -184 100 -190 4 -5 49 -91 101 -190 115
-223 146 -280 153 -280 7 0 73 48 428 313 172 129 322 238 334 244 18 9 70
-26 398 -271 207 -155 382 -282 387 -284 13 -2 18 7 292 533 33 63 74 142 92
175 18 33 42 78 53 101 l21 41 73 -14 c40 -8 120 -23 178 -34 205 -40 306 -60
385 -74 44 -8 91 -17 105 -20 54 -12 127 -26 160 -31 19 -3 40 -6 45 -8 6 -2
10 22 11 58 0 51 9 305 19 591 1 39 4 122 5 185 3 127 6 140 26 140 7 0 53 11
100 25 48 14 97 27 111 29 13 3 50 12 81 21 31 10 65 19 75 21 10 2 27 6 37 9
10 3 27 8 37 10 23 5 385 101 436 115 20 6 37 13 37 16 0 2 -10 26 -21 52 -12
26 -27 61 -34 77 -24 54 -96 219 -115 260 -10 22 -41 94 -70 160 -29 66 -64
145 -77 175 -14 30 -32 73 -41 95 -8 22 -19 45 -24 51 -7 10 40 54 222 207 14
11 59 50 101 86 41 36 118 102 170 146 52 44 107 92 124 107 82 73 101 88 109
88 14 0 -14 29 -109 108 -49 42 -95 81 -101 87 -6 5 -32 28 -58 50 -27 22 -58
48 -70 58 -11 11 -103 89 -203 175 -101 86 -183 162 -183 169 0 8 10 35 21 61
12 26 34 75 50 109 16 34 40 89 54 122 22 54 48 112 90 206 88 197 165 379
161 383 -5 4 -117 35 -301 82 -100 26 -359 94 -505 133 l-124 33 -2 45 c-4 88
-14 389 -20 584 -11 374 -7 348 -57 335 -17 -5 -45 -12 -62 -14 -16 -3 -41 -8
-55 -11 -14 -3 -63 -12 -110 -21 -47 -9 -94 -18 -105 -20 -11 -2 -33 -7 -50
-9 -16 -3 -37 -8 -45 -10 -8 -2 -31 -6 -50 -9 -19 -3 -44 -8 -55 -10 -32 -7
-349 -67 -363 -69 -7 -1 -32 34 -55 78 -53 100 -160 304 -263 500 -117 226
-143 270 -153 268 -10 -3 -704 -517 -735 -545 -11 -10 -25 -18 -32 -18 -7 0
-172 118 -366 263 -427 317 -415 309 -421 300z"/>
</g>
</svg>
