<?xml version="1.0"?>
<svg xmlns="http://www.w3.org/2000/svg" xmlns:xlink="http://www.w3.org/1999/xlink" version="1.1" id="Capa_1" x="0px" y="0px" width="512px" height="512px" viewBox="0 0 475.187 475.187" style="enable-background:new 0 0 475.187 475.187;" xml:space="preserve" class=""><g><g>
	<g>
		<path d="M98.557,206.732c21.798,0,39.53-17.728,39.53-39.523c0-21.798-17.732-39.533-39.53-39.533    c-21.796,0-39.522,17.74-39.522,39.533C59.035,188.999,76.761,206.732,98.557,206.732z" data-original="#000000" class="active-path" data-old_color="#ffc107" fill="#ffc107"/>
		<path d="M472.488,342.156h-23.779L311.646,134.444c-0.483-0.732-1.26-1.103-2.078-1.158c-0.147-0.026-0.288,0-0.431-0.005    c-0.089,0.014-0.169-0.011-0.252,0.005c-0.809,0.061-1.597,0.441-2.067,1.185l-74.653,116.11l-44.585-62.679l0,0l-0.026-0.042    c-0.103-0.148-0.252-0.236-0.375-0.354c-0.118-0.113-0.21-0.255-0.354-0.339c-0.005-0.005-0.018-0.005-0.023-0.01    c-0.182-0.116-0.387-0.168-0.591-0.231c-0.816-0.275-1.693-0.184-2.381,0.299c-0.005,0.005-0.011,0.005-0.016,0.005    c-0.129,0.092-0.205,0.221-0.312,0.333c-0.134,0.134-0.287,0.242-0.394,0.405l-0.027,0.042c0,0,0,0,0,0.005L83.974,342.156H55.835    v-22.889h25.066c0.036,0,0.074,0,0.107,0c1.483,0,2.688-1.213,2.688-2.687c0-0.819-0.373-1.565-0.958-2.048l-19.636-27.857h18.557    c1.005,0,1.924-0.563,2.386-1.455c0.462-0.893,0.386-1.963-0.189-2.788l-27.758-39.364c-0.494-0.709-1.3-1.124-2.161-1.135    c-0.979,0.011-1.677,0.384-2.193,1.077l-29.269,39.37c-0.606,0.803-0.698,1.905-0.242,2.799c0.457,0.912,1.386,1.48,2.401,1.48    h18.131l-21.044,28.304c-0.606,0.808-0.698,1.906-0.241,2.803c0.456,0.898,1.388,1.47,2.404,1.47h26.581v22.899H2.688    c-1.483,0-2.688,1.195-2.688,2.688c0,1.47,1.204,2.688,2.688,2.688h469.812c1.491,0,2.688-1.218,2.688-2.688    S473.979,342.156,472.488,342.156z M161.769,231.099c7.068,3.827,14.992,5.931,23.087,5.931c9.123,0,18.019-2.55,25.721-7.361    c0.032-0.022,0.048-0.053,0.079-0.077l18.396,25.843l-22.153,34.458c-0.8,1.249-0.44,2.918,0.806,3.716    c0.452,0.294,0.953,0.431,1.452,0.431c0.887,0,1.753-0.431,2.262-1.229l74.065-115.214c7.064,3.827,14.992,5.924,23.092,5.924    c8.688,0,17.14-2.37,24.572-6.746l109.136,165.381h-92.107v-25.681c12.735-1.364,22.72-12.042,22.72-25.123    c0-14.005-11.396-25.408-25.407-25.408c-14,0-25.396,11.393-25.396,25.408c0,13.081,9.979,23.759,22.707,25.123v25.681h-63.905    v-22.889h25.071c0.041,0,0.073-0.011,0.111,0c1.485,0,2.686-1.213,2.686-2.687c0-0.819-0.361-1.565-0.959-2.059l-19.627-27.847    h18.545c1.013,0,1.921-0.563,2.384-1.455c0.462-0.903,0.387-1.963-0.189-2.788l-27.748-39.354    c-0.494-0.703-1.297-1.134-2.158-1.145c-0.925,0.011-1.686,0.384-2.189,1.077l-29.26,39.37c-0.607,0.803-0.703,1.905-0.252,2.799    c0.463,0.901,1.397,1.48,2.405,1.48h18.131l-21.045,28.293c-0.604,0.818-0.698,1.911-0.241,2.813    c0.457,0.914,1.386,1.48,2.389,1.48h26.582v22.878H170.385v-25.67c12.729-1.366,22.711-12.042,22.711-25.123    c0-14.006-11.396-25.397-25.399-25.397c-14.002,0-25.399,11.392-25.399,25.397c0,13.081,9.981,23.757,22.711,25.123v25.681H90.36    L161.769,231.099z" data-original="#000000" class="active-path" data-old_color="#ffc107" fill="#ffc107"/>
	</g>
</g></g> </svg>
